<mxfile host="Electron" modified="2024-02-19T13:14:41.746Z" agent="Mozilla/5.0 (Macintosh; Intel Mac OS X 10_15_7) AppleWebKit/537.36 (KHTML, like Gecko) draw.io/22.1.16 Chrome/120.0.6099.109 Electron/28.1.0 Safari/537.36" etag="lKBf7DCN0UCEv-bzz1QR" version="22.1.16" type="device">
  <diagram name="페이지-1" id="9jxZhIshzEzYyqjMEP6w">
    <mxGraphModel dx="1388" dy="839" grid="1" gridSize="10" guides="1" tooltips="1" connect="1" arrows="1" fold="1" page="1" pageScale="1" pageWidth="827" pageHeight="1169" math="0" shadow="0">
      <root>
        <mxCell id="0" />
        <mxCell id="1" parent="0" />
        <mxCell id="Y09NMAfjIpc01OhSeCiu-17" value="e" style="swimlane;whiteSpace=wrap;html=1;" vertex="1" parent="1">
          <mxGeometry x="160" y="120" width="590" height="910" as="geometry" />
        </mxCell>
        <mxCell id="Y09NMAfjIpc01OhSeCiu-1" value="문자열의 처음부터 끝까지 반복&amp;nbsp;" style="rounded=0;whiteSpace=wrap;html=1;shape=swimlane;fontStyle=1;startSize=23;" vertex="1" parent="Y09NMAfjIpc01OhSeCiu-17">
          <mxGeometry x="55" y="120" width="480" height="570" as="geometry" />
        </mxCell>
        <mxCell id="Y09NMAfjIpc01OhSeCiu-4" value="문자가 A인가&amp;nbsp;" style="rhombus;whiteSpace=wrap;html=1;" vertex="1" parent="Y09NMAfjIpc01OhSeCiu-1">
          <mxGeometry x="40" y="50" width="160" height="80" as="geometry" />
        </mxCell>
        <mxCell id="Y09NMAfjIpc01OhSeCiu-5" value="문자가 B 또는 F인가&amp;nbsp;" style="rhombus;whiteSpace=wrap;html=1;" vertex="1" parent="Y09NMAfjIpc01OhSeCiu-1">
          <mxGeometry x="40" y="160" width="160" height="80" as="geometry" />
        </mxCell>
        <mxCell id="Y09NMAfjIpc01OhSeCiu-6" value="문자가 C인가" style="rhombus;whiteSpace=wrap;html=1;" vertex="1" parent="Y09NMAfjIpc01OhSeCiu-1">
          <mxGeometry x="40" y="260" width="160" height="80" as="geometry" />
        </mxCell>
        <mxCell id="Y09NMAfjIpc01OhSeCiu-7" value="문자가 D또는 E인가" style="rhombus;whiteSpace=wrap;html=1;" vertex="1" parent="Y09NMAfjIpc01OhSeCiu-1">
          <mxGeometry x="40" y="364.5" width="160" height="80" as="geometry" />
        </mxCell>
        <mxCell id="Y09NMAfjIpc01OhSeCiu-8" value="스택에 2푸시" style="whiteSpace=wrap;html=1;" vertex="1" parent="Y09NMAfjIpc01OhSeCiu-1">
          <mxGeometry x="220" y="374.5" width="120" height="60" as="geometry" />
        </mxCell>
        <mxCell id="Y09NMAfjIpc01OhSeCiu-9" value="스택에 1푸시" style="whiteSpace=wrap;html=1;" vertex="1" parent="Y09NMAfjIpc01OhSeCiu-1">
          <mxGeometry x="220" y="60" width="120" height="60" as="geometry" />
        </mxCell>
        <mxCell id="Y09NMAfjIpc01OhSeCiu-10" value="스택의 마지막이 1 또는 2인지 확인" style="whiteSpace=wrap;html=1;" vertex="1" parent="Y09NMAfjIpc01OhSeCiu-1">
          <mxGeometry x="220" y="170" width="120" height="60" as="geometry" />
        </mxCell>
        <mxCell id="Y09NMAfjIpc01OhSeCiu-11" value="스택의 마지막이 1인지 확인" style="whiteSpace=wrap;html=1;" vertex="1" parent="Y09NMAfjIpc01OhSeCiu-1">
          <mxGeometry x="220" y="270" width="120" height="60" as="geometry" />
        </mxCell>
        <mxCell id="Y09NMAfjIpc01OhSeCiu-12" value="문자가 H인가" style="rhombus;whiteSpace=wrap;html=1;" vertex="1" parent="Y09NMAfjIpc01OhSeCiu-1">
          <mxGeometry x="40" y="460" width="160" height="80" as="geometry" />
        </mxCell>
        <mxCell id="Y09NMAfjIpc01OhSeCiu-13" value="직전 문자가 A인지 확인" style="whiteSpace=wrap;html=1;" vertex="1" parent="Y09NMAfjIpc01OhSeCiu-1">
          <mxGeometry x="220" y="470" width="120" height="60" as="geometry" />
        </mxCell>
        <mxCell id="Y09NMAfjIpc01OhSeCiu-2" value="stack 형성" style="rounded=0;whiteSpace=wrap;html=1;" vertex="1" parent="Y09NMAfjIpc01OhSeCiu-17">
          <mxGeometry x="55" y="50" width="120" height="60" as="geometry" />
        </mxCell>
        <mxCell id="Y09NMAfjIpc01OhSeCiu-14" value="stack의 크기가 0인가?" style="rounded=0;whiteSpace=wrap;html=1;shape=rhombus;perimeter=rhombusPerimeter;" vertex="1" parent="Y09NMAfjIpc01OhSeCiu-17">
          <mxGeometry x="65" y="710" width="150" height="60" as="geometry" />
        </mxCell>
        <mxCell id="Y09NMAfjIpc01OhSeCiu-15" value="cout Yes" style="rounded=0;whiteSpace=wrap;html=1;" vertex="1" parent="Y09NMAfjIpc01OhSeCiu-17">
          <mxGeometry x="80" y="800" width="120" height="60" as="geometry" />
        </mxCell>
        <mxCell id="Y09NMAfjIpc01OhSeCiu-16" value="Cout No" style="rounded=0;whiteSpace=wrap;html=1;" vertex="1" parent="Y09NMAfjIpc01OhSeCiu-17">
          <mxGeometry x="245" y="710" width="120" height="60" as="geometry" />
        </mxCell>
      </root>
    </mxGraphModel>
  </diagram>
</mxfile>
